<svg xmlns="http://www.w3.org/2000/svg" xmlns:wrs="http://www.wiris.com/xml/cvs-extension" height="50" width="78" wrs:baseline="35"><!--MathML: <math xmlns="http://www.w3.org/1998/Math/MathML"><mroot><mn>10</mn><mrow><mn>5</mn><mfrac><mn>5</mn><mn>2</mn></mfrac></mrow></mroot><mo>&#xA0;</mo><mfrac><mn>15</mn><mn>5</mn></mfrac></math>--><defs><style type="text/css"/></defs><line stroke="#000000" stroke-linecap="square" stroke-width="1" x1="0.5" x2="1.5" y1="29.5" y2="29.5"/><line stroke="#000000" stroke-linecap="square" stroke-width="1" x1="2.5" x2="3.5" y1="29.5" y2="29.5"/><line stroke="#000000" stroke-linecap="square" stroke-width="1" x1="4.5" x2="5.5" y1="29.5" y2="29.5"/><line stroke="#000000" stroke-linecap="square" stroke-width="1" x1="6.5" x2="7.5" y1="29.5" y2="29.5"/><line stroke="#000000" stroke-linecap="square" stroke-width="1" x1="8.5" x2="9.5" y1="29.5" y2="29.5"/><line stroke="#000000" stroke-linecap="square" stroke-width="1" x1="10.5" x2="11.5" y1="29.5" y2="29.5"/><line stroke="#000000" stroke-linecap="square" stroke-width="1" x1="12.5" x2="13.5" y1="29.5" y2="29.5"/><line stroke="#000000" stroke-linecap="square" stroke-width="1" x1="14.5" x2="15.5" y1="29.5" y2="29.5"/><polyline fill="none" points="12,-16 11,-16 5,0 2,-6" stroke="#000000" stroke-linecap="square" stroke-width="1" transform="translate(13.5,36.5)"/><polyline fill="none" points="5,0 2,-6" stroke="#000000" stroke-linecap="square" stroke-width="1" transform="translate(13.5,36.5)"/><line stroke="#000000" stroke-linecap="square" stroke-width="1" x1="25.5" x2="46.5" y1="20.5" y2="20.5"/><text font-family="Arial" font-size="12" text-anchor="middle" x="3.5" y="20">5</text><line stroke="#000000" stroke-linecap="square" stroke-width="1" x1="8.5" x2="18.5" y1="15.5" y2="15.5"/><text font-family="Arial" font-size="12" text-anchor="middle" x="13.5" y="11">5</text><text font-family="Arial" font-size="12" text-anchor="middle" x="13.5" y="27">2</text><text font-family="Arial" font-size="16" text-anchor="middle" x="36.5" y="35">10</text><line stroke="#000000" stroke-linecap="square" stroke-width="1" x1="53.5" x2="74.5" y1="29.5" y2="29.5"/><text font-family="Arial" font-size="16" text-anchor="middle" x="64.5" y="24">15</text><text font-family="Arial" font-size="16" text-anchor="middle" x="64.5" y="46">5</text></svg>