<svg xmlns="http://www.w3.org/2000/svg" xmlns:wrs="http://www.wiris.com/xml/cvs-extension" height="140" width="282" wrs:baseline="125"><!--MathML: <math xmlns="http://www.w3.org/1998/Math/MathML"><mfrac><mstyle displaystyle="true"><mfrac bevelled="true"><mroot><msup><msub><mstyle displaystyle="true"><mfrac bevelled="true"><mstyle displaystyle="true"><mfrac><mstyle displaystyle="true"><mfrac bevelled="true"><msqrt><mroot><msub><msup><msqrt><mstyle displaystyle="true"><mfrac><mstyle displaystyle="true"><mfrac bevelled="true"><mroot><msqrt><msub><maction actiontype="argument"><mrow/></maction><mrow/></msub></msqrt><mrow/></mroot><mrow/></mfrac></mstyle><mrow/></mfrac></mstyle></msqrt><mrow/></msup><mrow/></msub><mrow/></mroot></msqrt><mrow/></mfrac></mstyle><mrow/></mfrac></mstyle><mrow/></mfrac></mstyle><mrow/></msub><mrow/></msup><mrow/></mroot><mrow/></mfrac></mstyle><mrow/></mfrac></math>--><defs><style type="text/css"/></defs><line stroke="#000000" stroke-linecap="square" stroke-width="1" x1="2.5" x2="278.5" y1="119.5" y2="119.5"/><line stroke="#000000" stroke-linecap="square" stroke-width="1" x1="237.5" x2="293.5" y1="114.5" y2="2.5"/><line stroke="#000000" stroke-linecap="square" stroke-width="1" x1="15.5" x2="15.5" y1="4.5" y2="12.5"/><line stroke="#000000" stroke-linecap="square" stroke-width="1" x1="15.5" x2="15.5" y1="13.5" y2="21.5"/><line stroke="#000000" stroke-linecap="square" stroke-width="1" x1="15.5" x2="15.5" y1="22.5" y2="30.5"/><line stroke="#000000" stroke-linecap="square" stroke-width="1" x1="15.5" x2="15.5" y1="31.5" y2="39.5"/><line stroke="#000000" stroke-linecap="square" stroke-width="1" x1="15.5" x2="15.5" y1="40.5" y2="48.5"/><line stroke="#000000" stroke-linecap="square" stroke-width="1" x1="15.5" x2="15.5" y1="49.5" y2="57.5"/><line stroke="#000000" stroke-linecap="square" stroke-width="1" x1="15.5" x2="15.5" y1="58.5" y2="66.5"/><line stroke="#000000" stroke-linecap="square" stroke-width="1" x1="15.5" x2="15.5" y1="67.5" y2="75.5"/><line stroke="#000000" stroke-linecap="square" stroke-width="1" x1="15.5" x2="15.5" y1="76.5" y2="84.5"/><line stroke="#000000" stroke-linecap="square" stroke-width="1" x1="15.5" x2="15.5" y1="85.5" y2="93.5"/><line stroke="#000000" stroke-linecap="square" stroke-width="1" x1="15.5" x2="15.5" y1="94.5" y2="102.5"/><line stroke="#000000" stroke-linecap="square" stroke-width="1" x1="15.5" x2="15.5" y1="103.5" y2="111.5"/><line stroke="#000000" stroke-linecap="square" stroke-width="1" x1="15.5" x2="15.5" y1="112.5" y2="113.5"/><polyline fill="none" points="11,-3 11,1 2,-31" stroke="#000000" stroke-linecap="square" stroke-width="1" transform="translate(4.5,110.5)"/><polyline fill="none" points="11,1 2,-31 0,-27" stroke="#000000" stroke-linecap="square" stroke-width="1" transform="translate(4.5,110.5)"/><line stroke="#000000" stroke-linecap="square" stroke-width="1" x1="16.5" x2="237.5" y1="4.5" y2="4.5"/><line stroke="#000000" stroke-linecap="square" stroke-width="1" x1="187.5" x2="236.5" y1="105.5" y2="6.5"/><line stroke="#000000" stroke-linecap="square" stroke-width="1" x1="20.5" x2="185.5" y1="83.5" y2="83.5"/><line stroke="#000000" stroke-linecap="square" stroke-width="1" x1="154.5" x2="190.5" y1="78.5" y2="6.5"/><polyline fill="none" points="12,-66 11,-66 5,0 2,-26" stroke="#000000" stroke-linecap="square" stroke-width="1" transform="translate(22.5,74.5)"/><polyline fill="none" points="5,0 2,-26 0,-23" stroke="#000000" stroke-linecap="square" stroke-width="1" transform="translate(22.5,74.5)"/><line stroke="#000000" stroke-linecap="square" stroke-width="1" x1="34.5" x2="154.5" y1="8.5" y2="8.5"/><polyline fill="none" points="12,-62 11,-62 5,0 2,-25" stroke="#000000" stroke-linecap="square" stroke-width="1" transform="translate(36.5,74.5)"/><polyline fill="none" points="5,0 2,-25 0,-22" stroke="#000000" stroke-linecap="square" stroke-width="1" transform="translate(36.5,74.5)"/><line stroke="#000000" stroke-linecap="square" stroke-width="1" x1="48.5" x2="152.5" y1="12.5" y2="12.5"/><polyline fill="none" points="12,-56 11,-56 5,0 2,-22" stroke="#000000" stroke-linecap="square" stroke-width="1" transform="translate(50.5,74.5)"/><polyline fill="none" points="5,0 2,-22 0,-19" stroke="#000000" stroke-linecap="square" stroke-width="1" transform="translate(50.5,74.5)"/><line stroke="#000000" stroke-linecap="square" stroke-width="1" x1="62.5" x2="138.5" y1="18.5" y2="18.5"/><line stroke="#000000" stroke-linecap="square" stroke-width="1" x1="66.5" x2="134.5" y1="56.5" y2="56.5"/><line stroke="#000000" stroke-linecap="square" stroke-width="1" x1="113.5" x2="128.5" y1="51.5" y2="20.5"/><polyline fill="none" points="12,-26 11,-26 5,0 2,-10" stroke="#000000" stroke-linecap="square" stroke-width="1" transform="translate(68.5,47.5)"/><polyline fill="none" points="5,0 2,-10 0,-9" stroke="#000000" stroke-linecap="square" stroke-width="1" transform="translate(68.5,47.5)"/><line stroke="#000000" stroke-linecap="square" stroke-width="1" x1="80.5" x2="113.5" y1="21.5" y2="21.5"/><polyline fill="none" points="12,-22 11,-22 5,0 2,-9" stroke="#000000" stroke-linecap="square" stroke-width="1" transform="translate(82.5,47.5)"/><polyline fill="none" points="5,0 2,-9 0,-8" stroke="#000000" stroke-linecap="square" stroke-width="1" transform="translate(82.5,47.5)"/><line stroke="#000000" stroke-linecap="square" stroke-width="1" x1="94.5" x2="111.5" y1="25.5" y2="25.5"/></svg>